<svg width="34" height="34" viewBox="0 0 34 34" fill="none" xmlns="http://www.w3.org/2000/svg">
<rect width="34" height="34" fill="white" style="mix-blend-mode:multiply"/>
<path d="M3 17C3 13.287 4.475 9.72601 7.10051 7.1005C9.72602 4.475 13.287 3 17 3C20.713 3 24.274 4.475 26.8995 7.10051C29.525 9.72602 31 13.287 31 17C31 20.713 29.525 24.274 26.8995 26.8995C24.274 29.525 20.713 31 17 31C13.287 31 9.72601 29.525 7.1005 26.8995C4.475 24.274 3 20.713 3 17L3 17Z" stroke="#EEEEEE" stroke-width="6"/>
<path d="M3 17C3 14.0435 3.93597 11.1629 5.67376 8.771C7.41156 6.37914 9.86196 4.59882 12.6738 3.68521C15.4856 2.7716 18.5144 2.7716 21.3262 3.68521C24.138 4.59882 26.5884 6.37914 28.3262 8.77101" stroke="#282828" stroke-width="6"/>
</svg>
